<?xml version="1.0" standalone="no"?>
<!DOCTYPE svg PUBLIC "-//W3C//DTD SVG 20010904//EN"
 "http://www.w3.org/TR/2001/REC-SVG-20010904/DTD/svg10.dtd">
<svg version="1.0" xmlns="http://www.w3.org/2000/svg"
 width="1289.000000pt" height="594.000000pt" viewBox="0 0 1289.000000 594.000000"
 preserveAspectRatio="xMidYMid meet">

<g transform="translate(0.000000,594.000000) scale(0.100000,-0.100000)"
fill="#000000" stroke="none">
<path d="M2690 5760 c-14 -4 -72 -13 -130 -20 -450 -51 -916 -239 -1310 -528
-199 -147 -450 -400 -592 -598 -282 -394 -441 -787 -515 -1277 -22 -143 -25
-586 -5 -722 63 -428 176 -755 378 -1096 202 -340 531 -686 849 -893 381 -248
774 -396 1180 -446 50 -6 112 -15 138 -20 58 -12 457 -13 457 -2 0 4 -53 16
-117 26 -549 83 -1031 310 -1456 684 -258 228 -473 509 -633 827 -199 396
-287 743 -301 1190 -21 686 207 1342 656 1880 441 529 1060 870 1768 975 46 7
80 16 77 21 -6 11 -410 10 -444 -1z"/>
<path d="M7905 3634 c-216 -34 -404 -195 -488 -419 -91 -243 -73 -544 46 -770
48 -90 174 -211 267 -257 111 -53 159 -63 300 -63 142 1 202 15 315 73 141 74
272 245 318 417 54 203 37 478 -41 645 -82 177 -216 296 -402 357 -45 14 -256
26 -315 17z m243 -210 c104 -30 188 -98 246 -197 115 -196 109 -526 -13 -714
-63 -97 -134 -149 -248 -178 -149 -39 -290 0 -400 110 -99 99 -141 210 -150
401 -18 350 161 591 440 593 38 1 94 -6 125 -15z"/>
<path d="M11965 3634 c-11 -2 -40 -10 -65 -16 -123 -31 -257 -134 -307 -237
-25 -50 -28 -67 -28 -161 1 -127 19 -172 99 -248 83 -79 160 -112 411 -182
244 -68 315 -118 323 -229 5 -70 -18 -123 -77 -173 -64 -55 -129 -73 -256 -73
-99 1 -116 4 -173 29 -76 35 -115 78 -138 151 l-18 55 -103 0 c-120 0 -122 -2
-103 -82 47 -199 205 -320 455 -348 276 -31 509 70 598 257 30 63 32 76 32
173 0 96 -2 110 -28 159 -39 73 -111 141 -196 184 -74 38 -93 44 -236 82 -167
44 -190 52 -252 83 -80 41 -115 86 -121 156 -7 88 44 165 138 209 66 31 254
30 320 -1 74 -35 127 -93 139 -155 l7 -32 108 -3 109 -3 -7 53 c-19 144 -127
264 -292 325 -58 21 -90 26 -194 29 -69 1 -134 1 -145 -2z"/>
<path d="M2548 3622 l-128 -3 0 -739 0 -740 105 0 105 0 0 535 c0 294 4 535 8
535 11 0 31 -45 137 -310 47 -118 92 -228 99 -245 8 -16 44 -104 80 -195 37
-91 71 -173 76 -182 6 -10 10 -22 10 -28 0 -5 10 -33 22 -60 l22 -51 90 3 89
3 59 145 c33 80 97 239 144 354 46 115 91 223 98 240 7 17 21 51 31 76 10 25
23 59 30 75 7 17 25 63 41 102 16 40 32 73 37 73 4 0 7 -241 7 -535 l0 -536
108 3 107 3 0 735 0 735 -136 3 -136 3 -48 -118 c-26 -65 -54 -131 -61 -148
-7 -16 -43 -104 -79 -194 -36 -90 -72 -178 -80 -195 -7 -17 -35 -83 -60 -146
-26 -63 -53 -131 -61 -150 -9 -19 -30 -71 -47 -114 -18 -44 -37 -81 -43 -83
-6 -2 -21 20 -33 49 -12 29 -26 62 -31 73 -8 20 -240 589 -352 865 -32 80 -64
150 -71 155 -7 6 -65 9 -139 7z"/>
<path d="M4768 3622 l-116 -3 -26 -67 c-13 -37 -54 -150 -91 -252 -36 -102
-83 -232 -104 -290 -21 -58 -52 -143 -69 -190 -17 -47 -78 -216 -136 -377 -58
-161 -106 -294 -106 -297 0 -4 53 -6 118 -6 l117 0 44 128 c23 70 54 157 68
195 l25 67 291 -2 291 -3 61 -180 c34 -100 65 -186 69 -193 5 -8 43 -12 122
-12 63 0 114 2 114 5 0 2 -29 85 -64 182 -66 182 -105 292 -228 633 -38 107
-98 274 -133 370 -35 96 -71 199 -82 228 -10 30 -25 57 -33 60 -8 4 -68 6
-132 4z m40 -329 c113 -327 192 -559 192 -565 0 -4 -99 -8 -220 -8 -121 0
-220 4 -220 9 0 4 18 60 40 122 23 63 64 182 91 264 71 210 81 235 89 235 5 0
17 -26 28 -57z"/>
<path d="M5498 3622 c-60 -1 -108 -4 -108 -5 0 -1 36 -133 81 -292 44 -160 86
-312 94 -340 22 -85 134 -488 146 -525 6 -19 27 -98 47 -175 l37 -140 109 -3
c60 -1 113 1 118 6 5 5 22 56 38 113 15 57 58 210 95 339 37 129 73 258 80
285 25 100 87 321 96 344 6 13 13 20 18 15 4 -5 25 -72 46 -149 21 -77 44
-160 51 -185 7 -25 19 -70 27 -100 9 -30 46 -161 82 -290 37 -129 76 -268 87
-307 l20 -73 109 0 c65 0 110 4 114 11 4 5 20 58 36 117 17 59 41 148 55 197
14 50 31 113 39 140 7 28 72 262 144 520 72 259 131 476 131 483 0 9 -29 12
-113 12 l-114 0 -47 -187 c-26 -104 -58 -231 -71 -283 -38 -157 -94 -379 -119
-475 -13 -49 -29 -114 -36 -142 -7 -33 -17 -53 -26 -53 -8 0 -14 7 -14 15 0 8
-45 184 -99 392 -55 208 -116 441 -136 518 -20 77 -40 157 -46 178 l-10 38
-117 -3 -117 -3 -37 -145 c-21 -80 -49 -188 -63 -240 -70 -266 -138 -526 -161
-615 -29 -113 -42 -150 -51 -142 -3 3 -12 32 -19 64 -8 32 -27 112 -43 178
-91 378 -224 891 -234 900 -7 6 -58 9 -119 7z"/>
<path d="M8954 3606 c-3 -7 -4 -339 -2 -737 l3 -724 110 0 110 0 3 278 2 277
159 0 159 0 45 -82 c64 -119 112 -210 170 -318 27 -52 58 -110 69 -127 l20
-33 124 0 124 0 -41 78 c-23 42 -61 111 -84 152 -23 41 -65 118 -93 171 -28
53 -63 116 -77 140 -13 24 -25 47 -25 51 0 3 24 20 53 36 72 40 150 128 178
200 27 68 38 246 19 321 -18 73 -59 149 -107 197 -55 55 -167 110 -253 123
-36 6 -199 11 -363 11 -242 0 -299 -3 -303 -14z m676 -203 c92 -44 140 -128
140 -243 0 -148 -64 -228 -208 -259 -29 -6 -127 -11 -217 -11 l-163 0 -4 56
c-1 31 -2 153 0 271 l3 215 202 -4 c182 -3 207 -6 247 -25z"/>
<path d="M10250 2880 l0 -740 110 0 110 0 0 231 0 232 58 64 c31 36 71 81 88
101 l30 35 119 -164 c256 -354 348 -479 360 -489 8 -7 62 -10 140 -8 l126 3
-111 150 c-309 418 -480 654 -480 660 0 4 37 49 83 99 45 51 171 192 279 314
108 121 202 223 208 227 30 19 -1 25 -124 25 l-135 0 -103 -116 c-57 -64 -155
-176 -218 -248 -232 -266 -304 -346 -312 -346 -4 0 -8 160 -8 355 l0 355 -110
0 -110 0 0 -740z"/>
</g>
</svg>
